# xmcd CD database file
#
# Track frame offsets:
#	150
#	31374
#	45808
#	61097
#	83906
#	104052
#	124838
#	144688
#	164035
#	183715
#	209462
#	227210
#	242743
#	256221
#
# Disc length: 3809 seconds
#
# Revision: 0
# Processed by: cddbd v1.5.2PL0 Copyright (c) Steve Scherf et al.
# Submitted via: CDex 1.70beta2
#
DISCID=ca0edf0e
DTITLE=Jazz Clan - Sidney Bechet All Stars
DYEAR=2003
DGENRE=Jazz
TTITLE0=New JB
TTITLE1=Southern sunset
TTITLE2=Wild cat blues
TTITLE3=Si tu vois ma mere
TTITLE4=Muskrat ramble
TTITLE5=Blues in the air
TTITLE6=Buddy bolden stomp
TTITLE7=as- tu le cafard ?
TTITLE8=Saint louis blues
TTITLE9=Basin street blues
TTITLE10=Nuage
TTITLE11=That's A plenty
TTITLE12=Petite fleur
TTITLE13=Dans les rues d'Antibes
EXTD=YEAR: 2003
EXTT0=
EXTT1=
EXTT2=
EXTT3=
EXTT4=
EXTT5=
EXTT6=
EXTT7=
EXTT8=
EXTT9=
EXTT10=
EXTT11=
EXTT12=
EXTT13=
PLAYORDER=
